<svg width="33" height="32" viewBox="0 0 33 32" fill="none" xmlns="http://www.w3.org/2000/svg">
<path fill-rule="evenodd" clip-rule="evenodd" d="M23.5638 9.77504C25.1909 9.02577 25.3333 8.34851 25.3333 8C25.3333 7.65149 25.1909 6.97422 23.5638 6.22496C21.931 5.47308 19.4089 5 16.3333 5C13.2578 5 10.7357 5.47308 9.10289 6.22496C7.4758 6.97422 7.33334 7.65149 7.33334 8C7.33334 8.34851 7.4758 9.02577 9.10289 9.77504C10.7357 10.5269 13.2578 11 16.3333 11C19.4089 11 21.931 10.5269 23.5638 9.77504ZM25.3333 12.2452C23.1345 13.4151 19.9174 14 16.3333 14C12.7493 14 9.53218 13.4151 7.33334 12.2452V16C7.33334 16.3485 7.4758 17.0258 9.10289 17.775C10.7357 18.5269 13.2578 19 16.3333 19C19.4089 19 21.931 18.5269 23.5638 17.775C25.1909 17.0258 25.3333 16.3485 25.3333 16V12.2452ZM25.3333 20.2452C23.1345 21.4151 19.9174 22 16.3333 22C12.7493 22 9.53218 21.4151 7.33334 20.2452V24C7.33334 24.3485 7.4758 25.0258 9.10289 25.775C10.7357 26.5269 13.2578 27 16.3333 27C19.4089 27 21.931 26.5269 23.5638 25.775C25.1909 25.0258 25.3333 24.3485 25.3333 24V20.2452ZM28.3333 8C28.3333 4 22.9608 2 16.3333 2C9.70593 2 4.33334 4 4.33334 8V16V24C4.33334 28 9.70593 30 16.3333 30C22.9608 30 28.3333 28 28.3333 24V16V8Z" fill="#FFAB42"/>
</svg>
