<svg width="33" height="32" viewBox="0 0 33 32" fill="none" xmlns="http://www.w3.org/2000/svg">
<g clip-path="url(#clip0_1020_14420)">
<path fill-rule="evenodd" clip-rule="evenodd" d="M14.0712 6.02661L16.6667 6.99993V4.77193C16.6667 1.97911 19.4562 0.0459865 22.0712 1.02661L28.7734 3.53996C31.1152 4.41814 32.6667 6.65686 32.6667 9.15793V17.2279C32.6667 20.0208 29.8772 21.9539 27.2622 20.9732L24.6667 19.9999V22.2279C24.6667 25.0208 21.8772 26.9539 19.2622 25.9732L16.6667 24.9999V27.228C16.6667 30.0208 13.8772 31.9539 11.2622 30.9733L4.55995 28.46C2.21812 27.5818 0.666687 25.3431 0.666687 22.842V14.772C0.666687 11.9792 3.45618 10.0461 6.07118 11.0267L8.66669 12V9.77193C8.66669 6.97911 11.4562 5.04599 14.0712 6.02661ZM11.6667 13.125L12.7734 13.54C15.1152 14.4182 16.6667 16.6569 16.6667 19.158V21.7959L20.3156 23.1643C20.9693 23.4094 21.6667 22.9261 21.6667 22.2279V14.1579C21.6667 12.9074 20.891 11.788 19.7201 11.3489L13.0178 8.8356C12.3641 8.59044 11.6667 9.07372 11.6667 9.77193V13.125ZM20.7734 8.53996L19.6667 8.12493V4.77193C19.6667 4.07372 20.3641 3.59044 21.0178 3.8356L27.7201 6.34894C28.891 6.78804 29.6667 7.9074 29.6667 9.15793V17.2279C29.6667 17.9261 28.9693 18.4094 28.3156 18.1643L24.6667 16.7959V14.1579C24.6667 11.6569 23.1152 9.41814 20.7734 8.53996ZM3.66669 22.842V14.772C3.66669 14.0738 4.36406 13.5905 5.01781 13.8357L11.7201 16.349C12.891 16.7881 13.6667 17.9075 13.6667 19.158V27.228C13.6667 27.9262 12.9693 28.4095 12.3156 28.1643L5.61332 25.651C4.44241 25.2119 3.66669 24.0925 3.66669 22.842Z" fill="#FFAB42"/>
</g>
<defs>
<clipPath id="clip0_1020_14420">
<rect width="32" height="32" fill="white" transform="translate(0.666687)"/>
</clipPath>
</defs>
</svg>
