<svg width="32" height="32" viewBox="0 0 32 32" fill="none" xmlns="http://www.w3.org/2000/svg">
<path fill-rule="evenodd" clip-rule="evenodd" d="M10.5607 4.43934C11.1464 5.02513 11.1464 5.97487 10.5607 6.56066L6.56066 10.5607C5.97487 11.1464 5.02513 11.1464 4.43934 10.5607L2.43934 8.56066C1.85355 7.97487 1.85355 7.02513 2.43934 6.43934C3.02513 5.85355 3.97487 5.85355 4.56066 6.43934L5.5 7.37868L8.43934 4.43934C9.02513 3.85355 9.97487 3.85355 10.5607 4.43934ZM13 7.5C13 8.32843 13.6716 9 14.5 9H28.5C29.3284 9 30 8.32843 30 7.5C30 6.67157 29.3284 6 28.5 6H14.5C13.6716 6 13 6.67157 13 7.5ZM14.5 14.5C13.6716 14.5 13 15.1716 13 16C13 16.8284 13.6716 17.5 14.5 17.5H28.5C29.3284 17.5 30 16.8284 30 16C30 15.1716 29.3284 14.5 28.5 14.5H14.5ZM10.5607 14.5606C11.1464 13.9749 11.1464 13.0251 10.5607 12.4393C9.97487 11.8535 9.02513 11.8535 8.43934 12.4393L5.5 15.3787L4.56066 14.4393C3.97487 13.8535 3.02513 13.8535 2.43934 14.4393C1.85355 15.0251 1.85355 15.9749 2.43934 16.5606L4.43934 18.5606C5.02513 19.1464 5.97487 19.1464 6.56066 18.5606L10.5607 14.5606ZM10.5607 20.9393C11.1464 21.5251 11.1464 22.4749 10.5607 23.0607L6.56066 27.0607C5.97487 27.6464 5.02513 27.6464 4.43934 27.0607L2.43934 25.0607C1.85355 24.4749 1.85355 23.5251 2.43934 22.9393C3.02513 22.3536 3.97487 22.3536 4.56066 22.9393L5.5 23.8787L8.43934 20.9393C9.02513 20.3536 9.97487 20.3536 10.5607 20.9393ZM14.5 23C13.6716 23 13 23.6716 13 24.5C13 25.3284 13.6716 26 14.5 26H28.5C29.3284 26 30 25.3284 30 24.5C30 23.6716 29.3284 23 28.5 23H14.5Z" fill="#FFAB42"/>
</svg>
