<svg width="32" height="32" viewBox="0 0 32 32" fill="none" xmlns="http://www.w3.org/2000/svg">
<g clip-path="url(#clip0_1032_14489)">
<path d="M5.5 19.8935C3.34968 19.8935 1.60651 18.1503 1.60651 16C1.60651 13.8497 3.34968 12.1065 5.5 12.1065C7.65031 12.1065 9.39348 13.8497 9.39348 16C9.39348 18.1503 7.65031 19.8935 5.5 19.8935Z" stroke="#FFAB42" stroke-width="3.21303" stroke-linecap="round" stroke-linejoin="round"/>
<path d="M19.8935 26.5C19.8935 28.6503 18.1503 30.3935 16 30.3935C13.8497 30.3935 12.1065 28.6503 12.1065 26.5C12.1065 24.3497 13.8497 22.6065 16 22.6065C18.1503 22.6065 19.8935 24.3497 19.8935 26.5Z" stroke="#FFAB42" stroke-width="3.21303" stroke-linecap="round" stroke-linejoin="round"/>
<path d="M30.3935 16C30.3935 18.1503 28.6503 19.8935 26.5 19.8935C24.3497 19.8935 22.6065 18.1503 22.6065 16C22.6065 13.8497 24.3497 12.1065 26.5 12.1065C28.6503 12.1065 30.3935 13.8497 30.3935 16Z" stroke="#FFAB42" stroke-width="3.21303" stroke-linecap="round" stroke-linejoin="round"/>
<path d="M16 9.39349C13.8497 9.39349 12.1065 7.65031 12.1065 5.5C12.1065 3.34969 13.8497 1.60651 16 1.60651C18.1503 1.60651 19.8935 3.34969 19.8935 5.5C19.8935 7.65031 18.1503 9.39349 16 9.39349Z" stroke="#FFAB42" stroke-width="3.21303" stroke-linecap="round" stroke-linejoin="round"/>
<path fill-rule="evenodd" clip-rule="evenodd" d="M20 23.8258C21.6421 22.9848 22.9848 21.6421 23.8258 20H27.3172C26.112 23.4097 23.4097 26.112 20 27.3172V23.8258ZM8.17416 20C9.01518 21.6421 10.3579 22.9848 12 23.8258V27.3172C8.59033 26.112 5.88795 23.4096 4.68282 20H8.17416ZM12 8.17418C10.3579 9.0152 9.0152 10.3579 8.17418 12H4.68283C5.88797 8.59035 8.59035 5.88797 12 4.68284V8.17418ZM20 8.17418C21.6421 9.01519 22.9848 10.3579 23.8258 12H27.3172C26.112 8.59034 23.4096 5.88797 20 4.68283V8.17418Z" fill="#FFAB42"/>
</g>
<defs>
<clipPath id="clip0_1032_14489">
<rect width="32" height="32" fill="white"/>
</clipPath>
</defs>
</svg>
