<svg width="33" height="32" viewBox="0 0 33 32" fill="none" xmlns="http://www.w3.org/2000/svg">
<path fill-rule="evenodd" clip-rule="evenodd" d="M6.33914 9.40492L14.7792 5.35367C15.2642 5.12086 15.7954 5 16.3333 5C16.8713 5 17.4024 5.12086 17.8874 5.35367L26.3275 9.40492C26.9423 9.69999 27.3333 10.3215 27.3333 11.0034V12C27.3333 17.8308 24.3623 23.2597 19.4512 26.4028L17.4796 27.6646C17.1374 27.8836 16.7396 28 16.3333 28C15.9271 28 15.5293 27.8836 15.1871 27.6646L13.2155 26.4028C8.30439 23.2597 5.33334 17.8308 5.33334 12V11.0034C5.33334 10.3215 5.72439 9.7 6.33914 9.40492ZM13.4811 2.6491L5.04094 6.70035C3.38606 7.4947 2.33334 9.1677 2.33334 11.0034V12C2.33334 18.8537 5.82563 25.2351 11.5983 28.9296L13.5699 30.1914C14.3949 30.7194 15.3539 31 16.3333 31C17.3128 31 18.2718 30.7194 19.0967 30.1914L21.0684 28.9296C26.841 25.2351 30.3333 18.8537 30.3333 12V11.0034C30.3333 9.1677 29.2806 7.4947 27.6257 6.70035L19.1856 2.6491C18.2955 2.22183 17.3207 2 16.3333 2C15.346 2 14.3712 2.22183 13.4811 2.6491ZM22.5333 12.9C23.0304 12.2373 22.8961 11.2971 22.2333 10.8C21.5706 10.3029 20.6304 10.4373 20.1333 11.1L15.171 17.7164L12.394 14.9393C11.8082 14.3536 10.8585 14.3536 10.2727 14.9393C9.68689 15.5251 9.68689 16.4749 10.2727 17.0607L14.2727 21.0607C14.5802 21.3681 15.0059 21.527 15.4397 21.4962C15.8734 21.4654 16.2724 21.2479 16.5333 20.9L22.5333 12.9Z" fill="#FFAB42"/>
</svg>
