<svg width="33" height="32" viewBox="0 0 33 32" fill="none" xmlns="http://www.w3.org/2000/svg">
<path fill-rule="evenodd" clip-rule="evenodd" d="M16.3377 12L17.8577 7.94663L19.3377 4H11.6667C11.0815 4 10.5553 4.35627 10.3379 4.8996L5.69201 16.5144C5.67528 16.5563 5.66669 16.6009 5.66669 16.6459C5.66669 16.8415 5.82521 17 6.02075 17H11.6667H15.9498L14.4861 21.0252L12.3225 26.975C12.1413 27.4732 12.5103 28 13.0404 28C13.251 28 13.4523 27.913 13.5967 27.7597L27.509 12.9778C27.6103 12.8702 27.6667 12.728 27.6667 12.5802C27.6667 12.2598 27.4069 12 27.0865 12H20.6667H16.3377ZM19.4532 3.69194L19.4531 3.6922L19.4532 3.69194ZM21.7917 6L22.2622 4.74532C22.9418 2.93312 21.6021 1 19.6667 1H11.6667C9.85479 1 8.22544 2.10313 7.55252 3.78543L2.90658 15.4003C2.74811 15.7964 2.66669 16.2192 2.66669 16.6459C2.66669 18.4983 4.16835 20 6.02075 20H8.4745H11.6667L10.5758 23L9.50312 25.9498C8.61048 28.4046 10.4284 31 13.0404 31C14.0782 31 15.07 30.5715 15.7813 29.8157L29.6936 15.0339C30.3186 14.3698 30.6667 13.4922 30.6667 12.5802C30.6667 10.6029 29.0638 9 27.0865 9H23.8707H20.6667L21.7917 6Z" fill="#FFAB42"/>
</svg>
