<svg width="1080" height="100" viewBox="0 0 1080 100" fill="none" xmlns="http://www.w3.org/2000/svg">
<g clip-path="url(#clip0)">
<rect width="1080" height="100" fill="white"/>
<path fill-rule="evenodd" clip-rule="evenodd" d="M439.467 12.1851L439.467 12.1851C439.39 12.0672 439.333 11.9783 439.298 11.9208C438.774 12.6959 436.859 15.6818 435.885 18.9855C434.822 22.683 434.665 25.9613 435.032 29.1759C435.396 32.4033 436.773 35.7197 436.773 35.7197C437.504 37.4478 438.6 39.3156 439.313 40.2304C440.359 38.8836 442.762 34.8684 443.511 29.6334C443.928 26.7109 443.946 24.157 442.989 20.002C442.131 16.2844 440.118 13.1872 439.467 12.1851ZM439.298 39.1885C438.827 38.3118 438.096 36.6473 438.026 34.0552C438.008 31.5647 439.018 29.4174 439.313 28.9726C439.576 29.4174 440.446 31.2852 440.55 33.8392C440.621 36.3296 439.784 38.2991 439.298 39.1885ZM442.71 27.054C442.674 28.6423 442.483 30.3195 442.24 31.3233C442.327 29.5953 442.118 27.1684 441.717 25.2624C441.317 23.3692 440.184 20.1926 439.28 18.7314C438.445 20.1291 437.416 22.8736 436.877 25.2497C436.336 27.6258 436.32 30.5101 436.32 31.3741C436.176 30.6499 435.817 28.0451 435.919 25.4403C436.003 23.2929 436.511 21.0693 436.79 20.0528C437.852 16.6602 439.054 14.4875 439.28 14.1444C439.506 14.4875 441.02 17.1685 441.805 19.9766C442.586 22.7847 442.744 25.4784 442.71 27.054ZM447.046 41.196H453.014V43.1274H450.175V56.6977H447.046V41.196ZM456.552 50.8782L457.088 43.1274H457.268L457.804 50.8782H456.552ZM453.087 56.6977H456.15L456.44 52.5809H457.916L458.207 56.6977H461.269L459.637 41.196H454.719L453.087 56.6977ZM465.751 54.1946V51.2721H462.62V53.9278C462.62 55.0205 462.748 56.6977 464.942 56.6977H467.534C469.728 56.6977 469.869 55.0205 469.869 53.9278V50.802C469.869 50.2556 469.843 48.6546 467.739 48.7055V48.553C468.676 48.5911 469.869 48.1337 469.869 46.4437V43.966C469.869 42.886 469.728 41.196 467.534 41.196H464.942C462.748 41.196 462.62 42.886 462.62 43.966V46.1642H465.751V43.6356C465.751 43.2291 466.058 43.1274 466.238 43.1274C466.533 43.1274 466.738 43.3688 466.738 43.6356V46.7106C466.738 47.6635 466.418 47.8669 465.532 47.8669H464.211V49.5695H465.481C466.649 49.5695 466.738 50.1032 466.738 50.586V54.1946C466.738 54.4614 466.533 54.7028 466.238 54.7028C466.058 54.7028 465.751 54.5885 465.751 54.1946ZM471.921 41.196H479.17V56.6977H476.04V43.1274H475.052V56.6977H471.921V41.196ZM484.353 43.1274V49.722H484.764C485.097 49.722 485.341 49.4424 485.341 48.9469V43.9025C485.341 43.4069 485.097 43.1274 484.764 43.1274H484.353ZM484.353 56.6977H481.223V41.196H486.149C488.33 41.196 488.471 42.886 488.471 43.966V48.6546C488.471 49.7474 488.33 51.4246 486.149 51.4246H484.353V56.6977ZM494.642 54.1946C494.642 54.4614 494.437 54.7028 494.142 54.7028C493.962 54.7028 493.654 54.5885 493.654 54.1946V43.6356C493.654 43.2291 493.962 43.1274 494.142 43.1274C494.437 43.1274 494.642 43.3688 494.642 43.6356V54.1946ZM490.524 53.9278C490.524 55.0205 490.665 56.6977 492.846 56.6977H495.45C497.631 56.6977 497.772 55.0205 497.772 53.9278V43.966C497.772 42.886 497.631 41.196 495.45 41.196H492.846C490.665 41.196 490.524 42.886 490.524 43.966V53.9278ZM512.039 41.196H507.959L505.932 52.0981L503.892 41.196H499.825V56.6977H502.955V46.9774H503.071L504.675 56.6977H507.176L508.793 46.9774H508.908V56.6977H512.039V41.196ZM433.638 41.1962H440.923H445.05V51.7805C442.197 54.7919 438.141 56.6852 433.638 56.6852C425.001 56.6852 418 49.7475 418 41.1962C418 32.6448 425.001 25.7199 433.638 25.7199V37.3588C431.39 37.3588 429.142 38.1975 427.428 39.9001C427.02 40.3067 426.662 40.7387 426.352 41.1962C424.048 44.576 424.406 49.2138 427.428 52.1998C429.142 53.9025 431.39 54.7411 433.638 54.7411C435.875 54.7411 438.112 53.9025 439.825 52.2252C439.833 52.2125 439.842 52.1998 439.851 52.1998C439.855 52.1935 439.858 52.1903 439.862 52.1871C439.866 52.1839 439.87 52.1808 439.874 52.1744C441.59 50.4718 441.59 47.7145 439.874 46.0246C438.156 44.3219 435.372 44.3219 433.656 46.0246C433.652 46.0246 433.649 46.0277 433.647 46.0309C433.644 46.0341 433.641 46.0373 433.638 46.0373V41.1962Z" fill="#222222"/>
<path fill-rule="evenodd" clip-rule="evenodd" d="M170.175 53.7632L166.06 57.8782L160 51.8179L161.496 50.2467L166.21 54.9603L168.829 52.4165L170.175 53.7632ZM168.754 47.5533L167.706 46.5058C167.706 46.5058 170.325 43.8872 170.325 43.8124L169.128 42.6153L164.938 46.8051L170.998 52.8654L175.113 48.6756L173.916 47.4785L171.298 50.0971L169.951 48.7504L172.046 46.5806L170.849 45.3835L168.754 47.5533ZM177.059 41.493L181.174 42.6901L179.528 44.4109L174.29 42.9145L175.188 42.0167C175.637 41.5678 175.637 40.8944 175.188 40.4455C174.739 39.9966 174.066 39.9966 173.617 40.4455L172.644 41.4182L177.508 46.2814L176.011 47.8526L169.951 41.7923L173.018 38.7247V38.6499C173.916 37.6772 175.487 37.6024 176.46 38.5003C177.283 39.3233 177.508 40.5203 177.059 41.493ZM184.54 33.1881C182.82 31.3925 180.276 31.2429 178.405 33.1133C176.46 34.9838 176.685 37.4528 178.48 39.2484C180.276 41.0441 182.745 41.1937 184.615 39.3233C186.486 37.4528 186.261 34.9838 184.54 33.1881ZM180.126 37.6024C178.929 36.4053 178.63 35.2831 179.602 34.3104C180.5 33.3378 181.697 33.6371 182.894 34.8341C184.092 36.0312 184.391 37.1535 183.418 38.1262C182.446 39.0988 181.323 38.7995 180.126 37.6024ZM185.214 26.4545L186.336 29.8961L183.194 28.5494L181.473 30.2702L187.084 32.0659L189.404 34.4601L190.9 32.8889L188.506 30.4947L187.009 24.6588L185.214 26.4545ZM220.304 44.7102L214.243 50.7705L212.597 49.1245L218.658 43.0642L220.304 44.7102ZM195.913 25.3322L191.199 27.5768C191.199 27.5768 190.275 26.7237 190.228 26.7499L192.471 22.0402L189.03 25.4818L187.608 24.0603L193.668 18L195.688 19.9453L193.444 24.4344L198.008 22.1898L199.953 24.1351L193.893 30.1954L192.471 28.7739L195.913 25.3322ZM190.227 26.7538C190.227 26.7519 190.227 26.7506 190.228 26.7499L190.227 26.7538ZM200.552 29.522L201.599 28.4746C201.599 28.4746 204.442 31.2429 204.517 31.2429L205.714 30.0458L201.375 25.7063L195.314 31.7666L199.654 36.1061L200.851 34.909L198.008 32.0659L199.355 30.7191L201.674 33.0385L202.871 31.8414L200.552 29.522ZM211.55 48.077L207.435 43.962L213.495 38.0513L214.992 39.5477L210.353 44.1865L212.897 46.7303L211.55 48.077ZM221.725 54.5862L223.671 48.1518L221.576 45.9821L215.515 52.0424L216.937 53.4639L221.052 49.4237L219.406 56.0078L221.276 57.8782L227.337 51.8179L225.915 50.3964L221.725 54.5862ZM207.51 38.6499L206.313 42.7649L204.667 41.1937L205.939 35.732L207.061 36.8542C207.51 37.3032 208.183 37.3032 208.632 36.8542C209.081 36.4053 209.081 35.732 208.632 35.2831L207.435 34.086L202.572 38.9492L201.075 37.378L207.136 31.3177L210.353 34.6097C211.325 35.5075 211.4 37.0787 210.502 38.0513C209.679 38.8743 208.482 39.0988 207.51 38.6499ZM220.154 59H167.183L193.668 32.3646L220.154 59Z" fill="#222222"/>
<path d="M945.07 38.8057C941.679 38.8057 940.061 41.6357 940.061 44.0994C940.061 47.3359 942.245 49.343 945.326 49.343C946.794 49.3129 948.176 48.6405 949.103 47.5014L948.472 45.8305C947.68 46.7086 946.543 47.1954 945.366 47.1602C943.888 47.2556 942.561 46.252 942.24 44.8019H949.794C949.834 44.541 949.854 44.275 949.854 44.0091C949.854 41.1891 948.016 38.8057 945.07 38.8057ZM942.245 43.0306C942.751 41.5253 944.379 40.7174 945.882 41.2242C946.733 41.5102 947.4 42.1776 947.685 43.0306H942.245Z" fill="#222222"/>
<path d="M957.093 47.0044C955.154 47.0044 953.732 45.8654 953.732 43.9938C953.732 42.6741 954.733 41.0383 957.073 41.0383C958.105 41.1136 959.076 41.5351 959.843 42.2275L960.434 40.4462C959.542 39.3323 958.18 38.705 956.757 38.7402C953.932 38.69 951.598 40.948 951.552 43.778C951.552 43.8633 951.552 43.9486 951.552 44.0339C951.477 46.889 953.726 49.2674 956.582 49.3427C956.632 49.3427 956.687 49.3427 956.737 49.3427C958.21 49.3377 959.607 48.7105 960.599 47.6216L959.983 45.8303C959.192 46.5578 958.165 46.9743 957.093 47.0044Z" fill="#222222"/>
<path d="M967.857 47.0049C965.919 47.0049 964.491 45.8658 964.491 43.9942C964.491 42.6745 965.493 41.0387 967.837 41.0387C968.874 41.119 969.851 41.5455 970.617 42.248L971.208 40.4667C970.312 39.3578 968.954 38.7255 967.527 38.7607C964.701 38.7155 962.372 40.9735 962.327 43.8035C962.327 43.8788 962.327 43.9541 962.327 44.0343C962.252 46.8894 964.501 49.2679 967.356 49.3431C967.406 49.3431 967.456 49.3431 967.502 49.3431C968.974 49.3482 970.382 48.731 971.379 47.6421L970.748 45.8307C969.956 46.5583 968.929 46.9748 967.857 47.0049Z" fill="#222222"/>
<path d="M911.007 34.7911H907V49.0265H909.234V43.5772H911.037C913.948 43.5772 915.546 41.5701 915.546 39.2369C915.566 36.6126 913.587 34.7911 911.007 34.7911ZM912.706 40.692C912.325 41.0483 911.824 41.239 911.303 41.2289H909.194V37.3H911.353C911.879 37.285 912.39 37.4957 912.756 37.8771C913.111 38.2584 913.302 38.7602 913.292 39.282C913.312 39.8139 913.101 40.3307 912.716 40.7021L912.706 40.692Z" fill="#222222"/>
<path d="M935.437 42.7043H930.609V38.9811H928.455V49.0266H930.609V45.0024H935.437V49.0266H937.591V38.9811H935.437V42.7043Z" fill="#222222"/>
<path d="M921.346 38.8057C917.96 38.8057 916.337 41.6357 916.337 44.0994C916.322 47.3359 918.521 49.343 921.607 49.343C923.075 49.3129 924.457 48.6405 925.384 47.5014L924.753 45.8305C923.961 46.7086 922.824 47.1954 921.647 47.1602C919.483 47.1602 918.641 45.5746 918.521 44.8019H926.075C926.115 44.541 926.135 44.275 926.135 44.0091C926.135 41.1891 924.297 38.8057 921.346 38.8057ZM918.521 43.0055C918.837 41.7762 919.984 40.9533 921.246 41.0436C922.504 40.9683 923.636 41.7862 923.961 43.0055H918.521Z" fill="#222222"/>
<path d="M1058 43.6177C1058.65 43.1109 1059.02 42.3331 1059.01 41.5102C1059.07 40.0802 1057.96 38.8659 1056.53 38.8056C1056.45 38.8006 1056.36 38.8006 1056.28 38.8056C1055.25 38.7956 1054.3 39.3275 1053.77 40.2006L1054.05 41.4751C1054.55 40.7325 1055.38 40.2758 1056.28 40.2508C1057.01 40.2156 1057.63 40.7877 1057.67 41.5253C1057.67 41.5554 1057.67 41.5905 1057.67 41.6206C1057.68 42.4034 1057.06 43.0457 1056.29 43.0657C1056.25 43.0657 1056.21 43.0657 1056.17 43.0607H1055.29V44.4858H1056.14C1057.41 44.4858 1058.06 45.2685 1058.06 46.1065C1058.06 47.11 1057.37 47.7724 1056.27 47.7724C1055.22 47.7674 1054.24 47.2455 1053.66 46.3724L1053.29 47.5767C1053.62 48.3544 1054.77 49.1974 1056.27 49.1974C1058.05 49.1974 1059.39 48.0233 1059.39 46.1617C1059.44 45.118 1058.91 44.1395 1058 43.6177Z" fill="#222222"/>
<path d="M981.071 39.9596C980.225 39.1467 979.098 38.6951 977.925 38.6851C975.711 38.6851 972.916 40.1452 972.916 43.9939C972.816 46.7988 975 49.1571 977.8 49.2575C977.885 49.2625 977.97 49.2625 978.056 49.2625C979.208 49.2625 980.305 48.7808 981.086 47.9378V48.9865H983.14V38.951H981.051L981.071 39.9596ZM981.026 45.73C980.325 46.5328 979.298 46.9694 978.236 46.9242C976.578 47.0146 975.16 45.74 975.075 44.0792C975.075 44.0491 975.07 44.024 975.07 43.9939C975.07 42.2778 976.363 40.9832 978.236 40.9832C979.293 40.9531 980.31 41.3846 981.026 42.1624V45.73Z" fill="#222222"/>
<path d="M1069.17 43.1561H1063.74V38.9913H1062.43V49.0269H1063.74V44.5711H1069.17V49.0269H1070.48V38.9913H1069.17V43.1561Z" fill="#222222"/>
<path d="M1043.62 46.9043V38.9913H1042.31V49.0269H1043.73L1049.13 41.159V49.0269H1050.44V38.9913H1049.02L1043.62 46.9043Z" fill="#222222"/>
<path d="M1076.86 42.9353H1075.36V38.9913H1074.06V49.0269H1076.85C1078.51 49.1071 1079.91 47.8276 1079.99 46.1667C1080 46.1015 1080 46.0313 1080 45.966C1080.04 44.3302 1078.75 42.9704 1077.12 42.9303C1077.03 42.9303 1076.94 42.9303 1076.86 42.9353ZM1077.08 47.7574H1075.38V44.4858H1077.08C1077.95 44.4657 1078.66 45.1531 1078.68 46.0212C1078.68 46.0563 1078.68 46.0915 1078.68 46.1216C1078.71 46.9997 1078.02 47.7323 1077.14 47.7574C1077.12 47.7574 1077.1 47.7574 1077.08 47.7574Z" fill="#222222"/>
<path d="M1039.54 38.9913H1037.83L1034.1 43.3819V38.9913H1032.79V43.3819L1029.07 38.9913H1027.35L1031.54 43.8686L1027.06 49.0269H1028.88L1032.79 44.4858V49.0269H1034.1V44.4858L1038.01 49.0269H1039.84L1035.36 43.8686L1039.54 38.9913Z" fill="#222222"/>
<path d="M993.309 42.7043H988.48V38.9811H986.326V49.0266H988.48V45.0024H993.309V49.0266H995.463V38.9811H993.309V42.7043Z" fill="#222222"/>
<path d="M1003.15 47.0044C1001.21 47.0044 999.786 45.8654 999.786 43.9938C999.786 42.6741 1000.79 41.0383 1003.13 41.0383C1004.16 41.1136 1005.13 41.5351 1005.9 42.2275L1006.49 40.4462C1005.6 39.3323 1004.23 38.705 1002.81 38.7402C999.986 38.69 997.652 40.948 997.607 43.778C997.607 43.8583 997.607 43.9336 997.607 44.0138C997.522 46.8689 999.761 49.2524 1002.62 49.3427C1002.68 49.3427 1002.74 49.3477 1002.79 49.3427C1004.27 49.3427 1005.69 48.7205 1006.68 47.6216L1006.04 45.8303C1005.25 46.5578 1004.22 46.9743 1003.15 47.0044Z" fill="#222222"/>
<path d="M1011.58 46.2571H1008.82V49.0219H1011.58V46.2571Z" fill="#222222"/>
<path d="M1016.44 45.0027L1008.81 30.7773H1024.07L1016.44 45.0027Z" fill="#222222"/>
<path d="M784.236 49.8725C784.236 50.7711 783.487 51.497 782.562 51.497C781.643 51.497 780.891 50.7711 780.891 49.8725C780.891 48.9739 781.643 48.2479 782.562 48.2479C783.484 48.2479 784.236 48.9739 784.236 49.8725ZM804.574 29.9315C806.111 30.7701 800.503 39.19 791.656 43.6553C791.015 46.3175 791.718 48.0943 792.321 48.0181C794.167 47.4752 793.395 43.0391 793.395 43.0391C793.395 43.0391 796.718 41.4834 796.981 41.3575C798.31 45.3969 796.135 51.3448 791.971 51.4956C786.672 51.3243 787.017 45.4701 787.017 45.4701L783.861 46.4082L784.749 44.0768C784.749 44.0768 786.791 43.5645 787.216 43.4504C790.815 31.6556 802.048 28.5704 804.574 29.9315ZM792.514 41.3121C794.596 40.9053 802.744 32.4781 801.051 32.6303C797.674 33.4353 791.843 40.9433 792.514 41.3121ZM799.104 40.7018V42.3835C799.104 42.3835 801.38 40.9448 801.552 41.2097C801.614 41.9663 798.736 48.3518 798.676 49.3193C798.625 49.7876 798.88 51.497 800.384 51.497C800.762 51.497 801.443 51.3931 802.061 51.0653C804.281 49.89 806.646 47.6332 806.646 47.6332C806.646 47.6332 806.081 49.0543 806.328 50.1886C806.564 51.3214 807.802 51.7853 809.116 51.317C810.424 50.8414 812.126 49.7144 812.769 48.9621C812.671 48.7192 812.304 47.5805 812.304 47.5805C812.304 47.5805 811.126 48.6563 810.84 48.5201C810.546 48.3738 814.285 37.7454 814.285 37.7454H810.169C809.553 40.4516 806.014 47.503 803.617 47.8074C802.795 47.7503 806.513 39.6978 806.652 38.789C806.925 37.5991 806.014 37.0502 804.922 37.2961C803.773 37.6723 799.104 40.7018 799.104 40.7018ZM824.131 37.744H828.029L821.709 57H817.768C817.768 57 819.984 49.5929 820.453 49.0104C817.316 52.8625 814.527 51.3346 814.032 48.1543C813.582 44.3139 815.019 40.6945 818.398 38.5723C821.63 36.6141 823.199 38.0952 823.648 38.8519C823.734 38.6733 824.131 37.744 824.131 37.744ZM822.51 41.4336C822.54 39.8178 821.379 39.8398 820.456 40.8555C820.106 41.2477 818.201 44.0461 818.266 46.2882C818.391 48.1879 819.26 47.6903 819.812 47.3903C821.116 46.5268 822.386 43.2894 822.51 41.4336ZM763.593 51.497C767.093 51.497 771.352 41.6663 773.21 37.9503C773.568 37.2244 773.776 36.6975 773.973 36.6756C774.633 37.3547 768.508 47.9245 771.905 50.7916C772.229 51.1092 772.666 51.3258 773.108 51.4282C776.384 52.0678 778.683 48.0416 780.648 45.9121L779.662 44.9578C779.005 45.6984 778.244 47.5103 777.694 46.5517C776.607 44.8525 783.242 27 783.242 27H776.999C776.345 28.0611 769.391 43.3655 768.076 43.5821C767.86 43.6831 767.752 43.4723 767.752 43.2572C768.51 37.5259 770.08 32.5249 771.938 27H765.7C762.089 36.7707 762.061 36.8893 758.778 43.3655C757.138 46.3424 754.732 48.2494 756.478 43.5806H750.797C749.701 46.4448 749.241 51.1721 752.762 51.4912C752.833 51.497 752.905 51.497 752.971 51.497C756.86 51.497 761.081 41.8712 761.512 41.4541C761.187 44.7471 759.637 48.6797 761.619 50.6877C762.225 51.2965 763.045 51.497 763.593 51.497ZM831.848 48.0416C833.24 50.0101 837.209 46.3116 837.209 46.3116L838.125 47.6801C838.125 47.6801 835.011 51.5702 831.4 51.497C829.702 51.4648 829.135 50.9906 828.035 50.1286C827.684 50.3628 826.379 51.1209 826.379 51.1209L825.693 49.3193C825.693 49.3193 826.675 48.8026 827.141 48.5319C826.083 39.4563 835.424 36.1428 838.833 37.9957C841.142 39.3554 839.344 44.2085 831.848 48.0416ZM831.598 46.3716C835.638 43.2631 837.358 40.3433 836.506 39.7695C835.661 39.1929 833.914 40.636 832.843 42.4844C831.763 44.3358 831.435 46.0994 831.598 46.3716ZM839.941 49.1773C840.19 49.7408 841.192 51.4385 843.349 51.4956C844.259 51.5234 845.252 51.2233 846.765 50.4242C851.84 47.7371 853.083 41.0194 852.996 39.7505C852.973 37.0356 851.02 37.4235 850.691 37.5215C847.979 38.4026 845.606 41.6956 845.606 41.6956L846.782 42.8386C846.782 42.8386 847.899 40.775 848.973 40.775C850.049 40.775 848.34 44.8012 848.067 45.3969C846.655 48.4192 844.096 49.7173 843.397 47.0463C842.515 42.6615 848.681 37.9313 848.681 37.9313L844.497 37.9298C844.499 37.9313 837.478 43.2382 839.941 49.1773Z" fill="#222222"/>
<path d="M595.946 38.8005C595.4 37.6546 593.692 34.2965 592.245 31.6706C590.261 28.0791 586.719 22.1534 586.316 21.6176C585.918 21.0818 585.695 21.0606 585.33 21.0235L585.276 21.0182C584.741 20.9545 582.471 20.928 581.103 20.928C579.931 20.928 577.449 20.9598 576.871 21.0182C576.325 21.0712 576.177 21.241 575.869 21.6442C575.439 22.2012 571.839 28.2913 569.967 31.6759C568.609 34.1215 566.461 38.3495 566.265 38.8005C566.085 39.2143 566 39.5379 566 39.819C566 40.1214 566.085 40.445 566.265 40.8376C566.716 41.8137 568.073 44.5192 569.967 47.9675C571.945 51.5643 575.514 57.5058 575.89 58.0257C576.293 58.5721 576.553 58.5934 576.914 58.6305C577.465 58.6782 579.836 58.7154 581.103 58.7154C582.471 58.7154 584.948 58.6623 585.292 58.6305C585.632 58.5987 585.923 58.5721 586.316 58.0257C586.676 57.5271 590.516 51.1239 592.245 47.9675C593.899 44.9436 595.734 41.315 595.946 40.8376C596.18 40.3177 596.211 40.0418 596.211 39.819C596.211 39.644 596.174 39.2832 595.946 38.8005ZM586.263 40.9278C584.253 45.246 578.828 55.2671 577.704 57.1822C577.63 57.3042 577.571 57.3997 577.529 57.4687C577.359 57.7233 577.216 57.8719 577.094 57.8666C577.094 57.8666 579.098 54.1902 580.668 50.2592C578.908 47.0073 577.391 43.9994 575.933 40.9065C575.673 40.3548 575.545 40.0843 575.551 39.8137C575.551 39.5432 575.683 39.2726 575.938 38.7209C578.043 34.1904 583.203 24.4664 584.698 22.1481C584.873 21.8776 584.964 21.7768 585.091 21.7768C585.096 21.7768 585.096 21.7768 585.101 21.7768C585.101 21.7768 583.017 25.6759 581.533 29.3841C583.293 32.6361 584.815 35.6493 586.273 38.7421C586.533 39.2938 586.655 39.5538 586.655 39.8243C586.655 40.0949 586.523 40.3707 586.263 40.9278Z" fill="#222222"/>
<path d="M675.982 35.3826V37.0226H672.591V44.2386H670.304V37.0236H666.914V35.3836H675.982V35.3826Z" fill="#222222"/>
<path d="M667.89 42.5988V44.2398H660.624V35.3838H662.908V42.5988H667.89Z" fill="#222222"/>
<path d="M623.875 42.5988V44.2398H616.24V35.3838H623.731V37.0248H618.528V38.9708H623.282V40.5588H618.528V42.5988H623.875Z" fill="#222222"/>
<path d="M612.145 40.9497C613.124 40.4147 613.728 39.3617 613.728 38.2567C613.728 37.3357 613.461 36.6207 612.903 36.1507C612.253 35.6087 611.362 35.3827 609.859 35.3827H604.616L604.523 35.9167C604.523 35.9167 604.616 36.0767 604.724 36.2677C604.887 36.5497 604.873 36.6327 604.873 36.8207V44.2387H607.161V41.4037C607.161 41.4037 609.167 41.4037 610.003 41.4037L611.527 44.2397H614.045L612.145 40.9497ZM610.989 39.5127C610.813 39.6857 610.604 39.7697 610.28 39.7697H607.162V37.0707H609.625C610.359 37.0707 610.751 37.1537 611.015 37.3697C611.274 37.5777 611.399 37.8967 611.399 38.3657C611.398 38.8497 611.27 39.2397 610.989 39.5127Z" fill="#222222"/>
<path d="M633.449 35.3816V41.2566C632.916 40.5796 632.356 39.9276 631.409 38.8796C630.639 38.0276 629.034 36.2806 628.209 35.3826H626.002L625.91 35.9166C625.91 35.9166 626.004 36.0766 626.111 36.2676C626.233 36.4776 626.258 36.5776 626.262 36.6926C626.262 36.7016 626.261 44.2396 626.261 44.2396L628.315 44.2326V38.3656C628.725 38.9166 629.456 39.7626 629.943 40.2946C630.913 41.3516 632.378 42.9996 633.518 44.2386H635.493V35.3826L633.449 35.3816Z" fill="#222222"/>
<path d="M655.835 35.3826V40.7986C655.835 41.4026 655.715 41.7626 655.423 42.0376C655.053 42.3846 654.442 42.5496 653.559 42.5496C652.663 42.5496 652.036 42.3836 651.668 42.0376C651.376 41.7616 651.256 41.4016 651.256 40.7986V35.3826H648.711L648.619 35.9166C648.619 35.9166 648.714 36.0766 648.819 36.2676C648.935 36.4706 648.962 36.5696 648.968 36.6796C648.968 36.6936 648.97 40.8816 648.97 40.8816C648.97 43.1976 650.527 44.3756 653.53 44.3756H653.593C656.598 44.3756 658.073 43.2296 658.073 40.8816V35.3826H655.835Z" fill="#222222"/>
<path d="M643.88 35.3826H641.022C640.156 37.1856 638.648 40.5126 637.238 44.2396H639.533C639.715 43.7356 639.91 43.2216 640.104 42.7056H644.797C644.994 43.2206 645.187 43.7356 645.369 44.2396H647.665C646.254 40.5136 644.746 37.1856 643.88 35.3826ZM640.761 41.0366C641.363 39.5276 641.965 38.1006 642.451 36.9936C642.936 38.1006 643.541 39.5276 644.142 41.0366H640.761Z" fill="#222222"/>
<path d="M695.834 19.8785H691.273V59.8785H695.834V19.8785Z" fill="#222222"/>
<path d="M607.064 48.5436C608.447 48.5436 609.031 49.0646 609.031 50.2816C609.031 51.4906 608.447 52.0116 607.064 52.0116H605.531V54.1866H604.864V49.0726C604.864 49.0136 604.839 48.9886 604.78 48.9636L604.53 48.8546L604.589 48.5436H607.064ZM605.531 51.4656H607.014C607.964 51.4656 608.356 51.1216 608.356 50.2816C608.356 49.4416 607.964 49.0976 607.014 49.0976H605.531V51.4656Z" fill="#222222"/>
<path d="M612.374 53.7665C612.124 54.1195 611.666 54.2875 611.008 54.2875C609.95 54.2875 609.465 53.9095 609.465 53.0865C609.465 52.2635 609.966 51.8945 611.099 51.8945C611.533 51.8945 611.941 51.9535 612.282 52.0705V51.5075C612.282 50.8105 611.932 50.5335 611.073 50.5335C610.665 50.5335 610.239 50.6005 609.823 50.7345V50.1975C610.239 50.0715 610.672 50.0045 611.148 50.0045C612.398 50.0045 612.923 50.4665 612.923 51.5575V53.6145C612.923 53.6815 612.931 53.7065 612.99 53.7325L613.24 53.8415L613.173 54.1855H612.482C612.432 54.1855 612.415 54.1855 612.406 54.1185L612.374 53.7665ZM612.282 52.5405C611.965 52.4145 611.598 52.3555 611.198 52.3555C610.44 52.3555 610.123 52.5575 610.123 53.0775C610.123 53.5725 610.432 53.7995 611.132 53.7995C611.932 53.7995 612.282 53.5225 612.282 52.9095V52.5405Z" fill="#222222"/>
<path d="M615.55 50.0045C616.016 50.0045 616.45 50.0715 616.858 50.1895L616.75 50.7105C616.367 50.5845 615.992 50.5255 615.583 50.5255C614.899 50.5255 614.582 50.7525 614.582 51.1725C614.582 52.1635 617.024 51.4155 617.024 53.0535C617.024 53.8685 616.432 54.2885 615.398 54.2885C614.881 54.2885 614.407 54.2215 613.981 54.0865V53.5405C614.422 53.6915 614.881 53.7675 615.347 53.7675C616.056 53.7675 616.381 53.5075 616.381 53.0625C616.381 51.9625 613.939 52.7935 613.939 51.1815C613.941 50.3915 614.542 50.0045 615.55 50.0045Z" fill="#222222"/>
<path d="M619.359 50.0045C619.826 50.0045 620.259 50.0715 620.667 50.1895L620.559 50.7105C620.176 50.5845 619.801 50.5255 619.392 50.5255C618.708 50.5255 618.391 50.7525 618.391 51.1725C618.391 52.1635 620.833 51.4155 620.833 53.0535C620.833 53.8685 620.241 54.2885 619.207 54.2885C618.69 54.2885 618.216 54.2215 617.79 54.0865V53.5405C618.232 53.6915 618.69 53.7675 619.157 53.7675C619.865 53.7675 620.19 53.5075 620.19 53.0625C620.19 51.9625 617.748 52.7935 617.748 51.1815C617.75 50.3915 618.351 50.0045 619.359 50.0045Z" fill="#222222"/>
<path d="M621.659 50.1058H622.5C622.559 50.1058 622.576 50.1228 622.576 50.1898V54.1868H621.909V50.6768C621.909 50.6098 621.901 50.5848 621.842 50.5588L621.592 50.4498L621.659 50.1058ZM622.225 48.4348C622.525 48.4348 622.659 48.5608 622.659 48.8628C622.659 49.1568 622.526 49.2828 622.225 49.2828C621.917 49.2828 621.792 49.1568 621.792 48.8628C621.792 48.5608 621.917 48.4348 622.225 48.4348Z" fill="#222222"/>
<path d="M625.585 50.0045C626.986 50.0045 627.577 50.6425 627.577 52.1455C627.577 53.6575 626.986 54.2865 625.585 54.2865C624.185 54.2865 623.585 53.6565 623.585 52.1455C623.585 50.6425 624.186 50.0045 625.585 50.0045ZM625.585 53.7505C626.51 53.7505 626.894 53.2885 626.894 52.1465C626.894 51.0045 626.511 50.5425 625.585 50.5425C624.651 50.5425 624.268 51.0045 624.268 52.1465C624.268 53.2885 624.652 53.7505 625.585 53.7505Z" fill="#222222"/>
<path d="M632.07 53.6155C632.07 53.6825 632.078 53.7075 632.137 53.7335L632.387 53.8425L632.32 54.1865H631.479C631.42 54.1865 631.403 54.1695 631.403 54.1025V51.6425C631.403 50.8535 631.112 50.5595 630.386 50.5595C629.861 50.5595 629.361 50.7355 629.186 50.8615V54.1865H628.519V50.6765C628.519 50.6095 628.511 50.5845 628.453 50.5585L628.203 50.4495L628.269 50.1055H629.111C629.169 50.1055 629.186 50.1225 629.186 50.1895V50.4745C629.47 50.2055 629.903 50.0045 630.503 50.0045C631.62 50.0045 632.07 50.4745 632.07 51.6255V53.6155Z" fill="#222222"/>
<path d="M636.195 50.1058H637.412V50.6348H636.195V54.1868H635.528V50.7358C635.528 50.6438 635.528 50.6348 635.445 50.6098L634.97 50.4758L635.028 50.1058H635.528V49.5688C635.528 48.5858 635.953 48.1748 636.954 48.1748C637.287 48.1748 637.554 48.2248 637.712 48.2838L637.604 48.8048C637.437 48.7458 637.221 48.7128 637.029 48.7128C636.445 48.7128 636.195 48.9568 636.195 49.5438V50.1058Z" fill="#222222"/>
<path d="M639.823 50.0045C641.223 50.0045 641.815 50.6425 641.815 52.1455C641.815 53.6575 641.223 54.2865 639.823 54.2865C638.422 54.2865 637.823 53.6565 637.823 52.1455C637.822 50.6425 638.422 50.0045 639.823 50.0045ZM639.823 53.7505C640.748 53.7505 641.131 53.2885 641.131 52.1465C641.131 51.0045 640.748 50.5425 639.823 50.5425C638.889 50.5425 638.506 51.0045 638.506 52.1465C638.506 53.2885 638.889 53.7505 639.823 53.7505Z" fill="#222222"/>
<path d="M642.78 50.6765C642.78 50.6095 642.772 50.5845 642.714 50.5585L642.464 50.4495L642.53 50.1055H643.372C643.43 50.1055 643.447 50.1225 643.447 50.1895V50.6005C643.756 50.2055 644.188 50.0045 644.764 50.0045C644.906 50.0045 645.064 50.0215 645.156 50.0385L645.039 50.6265C644.939 50.6015 644.814 50.5765 644.664 50.5765C644.08 50.5765 643.739 50.7785 643.447 51.0215V54.1875H642.78V50.6765Z" fill="#222222"/>
<path d="M648.199 53.6155C648.199 53.6825 648.207 53.7075 648.265 53.7335L648.515 53.8425L648.449 54.1865H647.607C647.549 54.1865 647.532 54.1695 647.532 54.1025V48.8455C647.532 48.7785 647.524 48.7535 647.465 48.7275L647.215 48.6185L647.282 48.2745H648.123C648.182 48.2745 648.199 48.2915 648.199 48.3585V53.6155Z" fill="#222222"/>
<path d="M649.456 50.1058H650.298C650.356 50.1058 650.373 50.1228 650.373 50.1898V54.1868H649.706V50.6768C649.706 50.6098 649.698 50.5848 649.64 50.5588L649.39 50.4498L649.456 50.1058ZM650.023 48.4348C650.322 48.4348 650.456 48.5608 650.456 48.8628C650.456 49.1568 650.323 49.2828 650.023 49.2828C649.714 49.2828 649.589 49.1568 649.589 48.8628C649.59 48.5608 649.715 48.4348 650.023 48.4348Z" fill="#222222"/>
<path d="M652.624 50.1058H653.841V50.6348H652.624V54.1868H651.957V50.7358C651.957 50.6438 651.957 50.6348 651.874 50.6098L651.398 50.4758L651.457 50.1058H651.957V49.5688C651.957 48.5858 652.382 48.1748 653.382 48.1748C653.716 48.1748 653.983 48.2248 654.14 48.2838L654.032 48.8048C653.866 48.7458 653.649 48.7128 653.458 48.7128C652.874 48.7128 652.624 48.9568 652.624 49.5438V50.1058Z" fill="#222222"/>
<path d="M656.167 50.0045C657.401 50.0045 657.917 50.6255 657.917 52.0785C657.917 52.1715 657.917 52.2635 657.909 52.3385H654.9C654.934 53.3545 655.375 53.7575 656.467 53.7575C656.901 53.7575 657.325 53.6905 657.759 53.5555V54.0925C657.351 54.2265 656.909 54.2855 656.417 54.2855C654.892 54.2855 654.242 53.6555 654.242 52.1445C654.242 50.6425 654.816 50.0045 656.167 50.0045ZM654.9 51.8775H657.275C657.258 50.8865 656.941 50.4915 656.166 50.4915C655.3 50.4915 654.925 50.9035 654.9 51.8775Z" fill="#222222"/>
<path fill-rule="evenodd" clip-rule="evenodd" d="M17.9505 46.5849L17.9638 46.5381C18.1457 45.9052 18.5237 44.5873 16.3058 42.3647C15.4686 41.5241 13.1398 39.1897 10.5336 36.5766L10.5315 36.5744L10.5243 36.568C7.91504 33.9516 5.02737 31.0574 3.08069 29.1045C1.69798 27.719 1.60657 25.988 3.02009 24.5713C3.19576 24.3969 3.59022 24 3.59022 24C3.59022 24 16.4784 36.9192 18.1169 38.5631C18.9767 39.424 19.7749 40.8142 19.7749 42.5951C19.7749 44.3183 18.8144 45.7194 17.9505 46.5849ZM16.464 31.3416L16.4753 31.3309C17.5529 30.2507 18.3193 29.4822 18.534 29.2665C19.5623 28.236 20.532 26.3524 18.6757 24.4921L18.1847 24.0002L11.3523 30.8498L14.1537 33.6581C15.0053 32.8044 15.7942 32.0131 16.464 31.3416ZM3.81212 38.4589L3.82444 38.4151C2.96153 39.2807 2 40.6817 2 42.4049C2 44.1859 2.80026 45.576 3.65803 46.4384L18.1837 61L18.7558 60.4272C20.1684 59.0121 20.0769 57.281 18.6952 55.8939C16.3438 53.5367 12.621 49.8059 9.67166 46.8492L5.46808 42.6353C3.24814 40.4107 3.62926 39.0906 3.81212 38.4589ZM3.62618 55.3469L3.62308 55.3503L3.24095 55.7335C2.21265 56.764 1.24188 58.6476 3.09919 60.5095C3.42689 60.838 3.59022 60.9999 3.59022 60.9999L10.4226 54.1502L7.62122 51.342C5.8502 53.1189 4.34629 54.6253 3.62925 55.3436L3.62618 55.3469ZM16.2133 48.3464L14.1537 50.4106L11.3523 47.6023L13.113 45.8367L13.1151 45.8349C14.1876 44.7597 15.1758 43.7681 15.975 42.9679C17.179 44.2164 17.4471 45.0742 17.4471 45.6657C17.4471 46.3538 17.2437 47.2894 16.3726 48.1611C16.3048 48.2312 16.2544 48.2919 16.2133 48.3464ZM5.30678 36.921C5.1681 37.0595 5.04688 37.195 4.93798 37.3289C4.47571 37.9843 4.32679 38.831 4.32679 39.337C4.32679 39.9286 4.59695 40.7848 5.79989 42.0317L7.04905 40.7806L7.05109 40.7782C8.0609 39.7663 9.22688 38.5974 10.4236 37.3974L10.2151 37.1887L7.62226 34.589L5.36842 36.8493C5.35096 36.8712 5.33144 36.8945 5.30678 36.921ZM97.9144 30.8001C97.0279 30.797 96.1393 30.797 95.2527 30.8001V51.5621C95.5003 51.5621 95.7489 51.563 95.9975 51.5638C96.6375 51.566 97.2785 51.5682 97.9185 51.5559C97.9144 49.6308 97.9144 47.7074 97.9154 45.7838C97.9154 45.1425 97.9154 44.5009 97.9154 43.8594C98.7999 45.2452 99.6793 46.6343 100.558 48.0233L100.559 48.0241L100.56 48.0254V48.0265L100.561 48.0271C101.306 49.2064 102.053 50.3863 102.802 51.5637H105.755L105.751 51.5594C104.032 48.9439 102.312 46.3286 100.583 43.7209C101.477 42.3242 102.391 40.9408 103.306 39.557V39.5559L103.307 39.5555V39.5542L103.308 39.554C103.928 38.6146 104.549 37.6751 105.163 36.7312C104.893 36.7312 104.624 36.7305 104.353 36.7299C103.635 36.728 102.918 36.7262 102.201 36.7375C101.703 37.5277 101.206 38.3197 100.71 39.1116L100.709 39.1124V39.1135C99.781 40.5907 98.8543 42.0683 97.9154 43.5372C97.9144 41.4173 97.9144 39.297 97.9144 37.1766V37.1142C97.9144 35.0094 97.9144 32.9045 97.9144 30.8001ZM30.6096 31.2135C32.021 30.4181 33.7057 30.4414 35.2744 30.5644C36.2739 30.6531 37.2714 30.7979 38.234 31.0875C38.2381 31.4223 38.2381 31.7562 38.237 32.0906C38.237 32.2022 38.237 32.3145 38.237 32.4262C37.671 32.4289 37.106 32.4282 36.54 32.4273C35.786 32.4263 35.0309 32.4254 34.2769 32.4325C33.3688 32.4325 32.434 32.7236 31.7899 33.3867C30.8684 34.3208 30.4976 35.6378 30.2695 36.8956C29.873 39.2524 29.8822 41.6622 30.0753 44.0378C30.2757 45.7814 30.5797 47.7226 31.9306 48.9758C33.039 49.9862 34.6128 49.9595 36.0233 49.9354L36.165 49.9331C36.1681 48.0066 36.1681 46.1473 36.1671 44.2747V44.266V44.2581V44.2503V44.2425V44.2347C36.1671 42.9957 36.1661 41.7506 36.1671 40.476C37.0536 40.4729 37.9402 40.4729 38.8288 40.476C38.8267 41.86 38.8277 43.2178 38.8288 44.5694V44.5707V44.5721V44.5734V44.5747V44.5761C38.8318 46.7998 38.8339 49.0066 38.8195 51.2844C37.2057 51.7311 35.5209 51.8961 33.8506 51.851C32.395 51.8012 30.8736 51.4354 29.7723 50.4297C28.5714 49.3385 28.0126 47.7381 27.7003 46.1892C27.3048 44.1639 27.2586 42.0904 27.3048 40.0339C27.3726 38.074 27.5472 36.0783 28.2304 34.2242C28.6803 33.0053 29.4528 31.8518 30.6096 31.2135ZM78.9941 33.4667C78.3664 33.4664 77.7377 33.4661 77.109 33.4685C77.107 34.2271 77.108 34.9843 77.109 35.7416C77.109 36.1203 77.109 36.4989 77.109 36.8777C76.8306 36.8804 76.5523 36.8801 76.2728 36.8799C75.9102 36.8796 75.5476 36.8793 75.185 36.8855C75.185 37.0333 75.185 37.1812 75.185 37.3292C75.185 37.7729 75.1839 38.2164 75.1891 38.6601C75.3966 38.6624 75.6051 38.6608 75.8137 38.6594C76.1979 38.6567 76.5831 38.6539 76.9663 38.6742C76.957 40.1057 76.9591 41.5378 76.9611 42.9694V42.9704C76.9622 43.9001 76.9642 44.8297 76.9621 45.7588C76.9621 45.8621 76.9611 45.9657 76.9611 46.0695C76.956 47.3129 76.9519 48.5886 77.4203 49.7596C77.7357 50.608 78.4188 51.3163 79.2817 51.6012C80.7528 52.0853 82.3553 51.8409 83.7668 51.2696C83.7668 51.0728 83.7668 50.8757 83.7678 50.6784C83.7678 50.4807 83.7678 50.2828 83.7678 50.0849C83.437 50.0793 83.1063 50.081 82.7755 50.0827C82.3728 50.0847 81.9701 50.0867 81.5674 50.0756C80.9808 50.0553 80.4384 49.702 80.1457 49.2023C79.707 48.4737 79.631 47.6004 79.6248 46.7691C79.6228 44.7482 79.6228 42.7282 79.6238 40.7085V40.6904V38.6648C80.9264 38.6648 82.231 38.4625 83.472 38.0639V37.7312V37.7283C83.472 37.3965 83.472 37.0643 83.4699 36.7314C82.9203 36.7287 82.3707 36.7295 81.8211 36.7302C81.0877 36.7312 80.3552 36.7322 79.6218 36.7251C79.6248 35.6386 79.6248 34.5535 79.6218 33.4669L78.9941 33.4667ZM43.8911 39.1776C43.2799 40.3327 43.2049 41.6793 43.1834 42.962C44.7612 42.9651 46.3381 42.9651 47.9191 42.962C47.9057 41.7665 47.8246 40.5335 47.3366 39.4251C47.0449 38.7775 46.5045 38.1641 45.7639 38.0786C44.9688 37.9571 44.2425 38.4973 43.8911 39.1776ZM43.4895 36.7756C44.6791 36.3366 46.0145 36.3304 47.2329 36.6463C48.4132 36.9484 49.3213 37.9089 49.7579 39.0219C50.4801 40.8308 50.5643 42.8156 50.5828 44.7414C49.5247 44.742 48.4676 44.7418 47.4106 44.7417C46.0012 44.7414 44.5917 44.7411 43.1834 44.7429C43.209 46.119 43.244 47.5963 43.9887 48.8028C44.5065 49.6419 45.5081 50.0078 46.4521 50.0591C47.1712 50.0905 47.8903 50.0865 48.6104 50.0825C49.0696 50.0799 49.5299 50.0773 49.989 50.084C49.9911 50.4809 49.9911 50.878 49.986 51.2749C48.1163 51.8431 46.0967 52.0781 44.1788 51.6205C43.1227 51.3714 42.1314 50.7503 41.5603 49.8069C40.7385 48.4744 40.5854 46.8632 40.5289 45.3313C40.5073 43.3605 40.5587 41.3446 41.1812 39.4562C41.5541 38.309 42.3246 37.2084 43.4895 36.7756ZM61.0076 37.1946C59.9444 36.3385 58.4661 36.3478 57.182 36.5361C56.4968 36.6241 55.9123 36.972 55.3329 37.3166C55.1429 37.4299 54.9528 37.5428 54.7607 37.6461C54.7176 37.4142 54.6785 37.1805 54.6395 36.9478L54.6036 36.7323C54.3354 36.7339 54.0673 36.732 53.7992 36.7303C53.2774 36.7267 52.7544 36.7232 52.2326 36.7448C52.2388 39.5109 52.2378 42.2771 52.2367 45.043V45.0508C52.2367 47.2212 52.2357 49.3916 52.2388 51.5616C52.6219 51.5643 53.0051 51.5641 53.3883 51.5639C53.8865 51.5636 54.3837 51.5633 54.8799 51.5694C54.9076 49.2538 54.9045 46.9381 54.9004 44.6222V44.621C54.8974 42.6745 54.8943 40.7279 54.9097 38.7809C55.6442 38.3918 56.4814 38.1551 57.3166 38.2267C57.9627 38.2687 58.649 38.4711 59.0763 38.9864C59.5601 39.5438 59.6413 40.3221 59.6382 41.0335C59.6392 42.2044 59.6382 43.3752 59.6372 44.5459C59.6351 46.8864 59.6331 49.2268 59.6434 51.5679C60.1097 51.5638 60.5761 51.564 61.0415 51.5642H61.0425C61.4616 51.5644 61.8808 51.5646 62.2999 51.5616C62.2978 50.1487 62.2989 48.7356 62.2999 47.3223C62.3019 45.0841 62.303 42.8448 62.2937 40.6055C62.2598 39.3819 61.9968 38.0134 61.0076 37.1946ZM68.8415 38.1349C68.2652 38.2626 67.7896 38.6688 67.5041 39.1778C67.0161 40.0263 66.8641 41.0194 66.7511 41.9816C66.6062 43.6348 66.6031 45.3114 66.8312 46.9569C67.0037 47.9625 67.2369 49.0709 68.0444 49.7699C68.9484 50.475 70.4503 50.3925 71.1817 49.4709C71.7929 48.7113 71.9737 47.7165 72.1257 46.7794C72.3302 45.109 72.3261 43.4106 72.1545 41.7371C72.0055 40.7159 71.832 39.6231 71.1611 38.7996C70.6188 38.1178 69.6521 37.9449 68.8415 38.1349ZM67.992 36.5533C69.4404 36.3431 71.004 36.3555 72.3476 37.0109C73.5804 37.6383 74.2625 38.9615 74.5635 40.2645C74.9939 42.159 74.9949 44.1267 74.8665 46.0586C74.7217 47.6169 74.4392 49.2935 73.3595 50.4999C72.4329 51.546 70.9639 51.8511 69.6254 51.8605C68.2899 51.8792 66.8219 51.6783 65.8019 50.7319C64.7612 49.7699 64.3637 48.3346 64.1685 46.9755C63.9322 45.1557 63.9322 43.3016 64.1449 41.4803C64.3267 40.1492 64.6729 38.7482 65.619 37.7457C66.2354 37.0747 67.1065 36.7058 67.992 36.5533ZM86.1963 42.9597C86.223 41.6489 86.2939 40.2618 86.9555 39.0943C87.3078 38.4576 88.0063 37.9735 88.7552 38.0762C89.5041 38.1493 90.0516 38.7674 90.3485 39.4166C90.8396 40.5265 90.9187 41.7641 90.932 42.9612C89.3531 42.9627 87.7752 42.9643 86.1963 42.9597ZM89.9089 36.5615C88.5857 36.3265 87.1188 36.3591 85.9333 37.0596C84.8033 37.7618 84.2352 39.0616 83.9486 40.3147C83.5593 42.0007 83.5131 43.7458 83.548 45.4691C83.6117 46.9557 83.7771 48.5187 84.5794 49.8124C85.1433 50.7401 86.1172 51.3613 87.1609 51.6103C89.086 52.082 91.12 51.8455 92.9989 51.2772C93.0051 50.8787 93.0051 50.4802 93.004 50.0816C92.5633 50.0764 92.1237 50.0794 91.683 50.0825C90.9413 50.0875 90.1996 50.0925 89.4599 50.0583C88.519 50.0085 87.5205 49.6395 87.0037 48.8051C86.2579 47.5987 86.224 46.1198 86.1973 44.7436C87.842 44.7405 89.4856 44.7416 91.1293 44.7426C91.9521 44.7431 92.7739 44.7436 93.5957 44.7436C93.5752 42.7417 93.4951 40.6635 92.6763 38.8063C92.1843 37.6652 91.1416 36.7763 89.9089 36.5615Z" fill="#222222"/>
<path fill-rule="evenodd" clip-rule="evenodd" d="M290.894 33.0495C289.054 32.8547 287.199 33.2375 285.584 34.1451C283.969 35.0527 282.674 36.4407 281.876 38.1182C281.078 39.7957 280.816 41.6805 281.128 43.5133C281.439 45.3462 282.307 47.0373 283.613 48.3541C284.919 49.6709 286.6 50.5488 288.422 50.8671C290.245 51.1854 292.121 50.9286 293.793 50.1318C295.465 49.335 296.85 48.0374 297.758 46.4175C298.666 44.7975 299.053 42.9346 298.865 41.0849C298.658 39.0288 297.752 37.1072 296.3 35.6436C294.848 34.18 292.939 33.2639 290.894 33.0495ZM290.603 46.7628C289.614 46.8962 288.608 46.7147 287.726 46.2436C286.844 45.7726 286.132 45.0358 285.688 44.1367C285.245 43.2377 285.093 42.2216 285.254 41.2313C285.415 40.2409 285.88 39.3262 286.585 38.6155C287.29 37.9049 288.199 37.4341 289.184 37.2693C290.169 37.1045 291.18 37.2541 292.076 37.6969C292.972 38.1397 293.708 38.8535 294.179 39.738C294.651 40.6225 294.834 41.6333 294.705 42.6282C294.569 43.6747 294.093 44.6469 293.352 45.3944C292.61 46.1418 291.644 46.6228 290.603 46.7628ZM303.655 33.4056C303.344 33.4063 303.037 33.4767 302.757 33.6114C302.477 33.7462 302.23 33.9421 302.035 34.1848C301.84 34.4275 301.701 34.7109 301.628 35.0144C301.555 35.3179 301.551 35.6338 301.615 35.9392C301.812 36.9287 302.731 37.6048 303.733 37.6048H309.547L300.499 49.6374C300.432 49.7262 300.391 49.832 300.381 49.9429C300.371 50.0539 300.391 50.1655 300.44 50.2654C300.489 50.3652 300.565 50.4493 300.659 50.5083C300.753 50.5672 300.862 50.5987 300.973 50.5991H315.165C316.166 50.5991 317.086 49.9232 317.283 48.9336C317.347 48.6282 317.342 48.3123 317.27 48.0089C317.197 47.7054 317.058 47.422 316.863 47.1793C316.668 46.9366 316.421 46.7407 316.141 46.6058C315.861 46.471 315.555 46.4005 315.244 46.3996H308.16L317.201 34.3763C317.269 34.2867 317.31 34.1798 317.32 34.0678C317.331 33.9558 317.31 33.8431 317.261 33.7423C317.211 33.6415 317.134 33.5566 317.039 33.4971C316.944 33.4376 316.835 33.4059 316.723 33.4056H303.655ZM360.365 33.454C359.895 33.5663 359.477 33.8364 359.181 34.2196C358.884 34.6028 358.727 35.0761 358.735 35.5614V42.5529L347.462 33.5376C347.373 33.4671 347.267 33.4231 347.155 33.4107C347.043 33.3982 346.929 33.4179 346.828 33.4673C346.726 33.5168 346.64 33.5941 346.581 33.6903C346.521 33.7865 346.489 33.8977 346.489 34.0111V48.447C346.482 48.9323 346.639 49.4057 346.936 49.7889C347.232 50.1721 347.65 50.4422 348.12 50.5544C348.425 50.6219 348.741 50.6197 349.045 50.5479C349.349 50.4762 349.633 50.3367 349.877 50.1398C350.12 49.9429 350.316 49.6937 350.451 49.4104C350.586 49.1271 350.655 48.8171 350.655 48.5031V41.4511L361.928 50.4666C362.016 50.5371 362.123 50.581 362.235 50.5935C362.347 50.6059 362.46 50.5862 362.562 50.5368C362.664 50.4873 362.749 50.4101 362.809 50.314C362.869 50.2178 362.9 50.1066 362.9 49.9933V35.5047C362.9 35.1908 362.831 34.8808 362.696 34.5977C362.561 34.3145 362.365 34.0653 362.122 33.8685C361.878 33.6717 361.594 33.5323 361.29 33.4606C360.986 33.3888 360.67 33.3866 360.365 33.454ZM331.013 37.2028C335.781 37.2028 339.344 39.7351 339.344 42.0002C339.344 44.2654 335.781 46.7976 331.013 46.7976C326.245 46.7976 322.682 44.2654 322.682 42.0002C322.682 39.7351 326.245 37.2028 331.013 37.2028ZM331.013 33.0038C324.111 33.0038 318.517 37.0317 318.517 42.0002C318.517 46.9688 324.111 50.9967 331.013 50.9967C337.915 50.9967 343.509 46.9688 343.509 42.0002C343.509 37.0317 337.915 33.0038 331.013 33.0038Z" fill="#222222"/>
</g>
<defs>
<clipPath id="clip0">
<rect width="1080" height="100" fill="white"/>
</clipPath>
</defs>
</svg>
