<svg width="200" height="48" viewBox="0 0 200 48" fill="none" xmlns="http://www.w3.org/2000/svg">
<g clip-path="url(#clip0)">
<path d="M7.12 44.2847L11.2756 40.0834L9.91556 38.7084L7.27111 41.3056L2.51111 36.4931L1 38.0972L7.12 44.2847ZM8.78222 32.6736L9.84 33.7431L11.9556 31.5278L13.1644 32.75L11.0489 34.9653L12.4089 36.3403L15.0533 33.6667L16.2622 34.8889L12.1067 39.1667L5.98667 32.9792L10.2178 28.7014L11.4267 29.9236C11.4267 30 8.78222 32.6736 8.78222 32.6736ZM22.3822 28.7778L18.2267 27.5556C18.68 26.5625 18.4533 25.3403 17.6222 24.5C16.64 23.5833 15.0533 23.6597 14.1467 24.6528V24.7292L11.0489 27.8611L17.1689 34.0486L18.68 32.4445L13.7689 27.4792L14.7511 26.4861C15.2044 26.0278 15.8844 26.0278 16.3378 26.4861C16.7911 26.9445 16.7911 27.632 16.3378 28.0903L15.4311 29.007L20.72 30.5347L22.3822 28.7778ZM19.5867 19C21.4756 17.0903 24.0444 17.2431 25.7822 19.0764C27.52 20.9097 27.7467 23.4306 25.8578 25.3403C23.9689 27.25 21.4756 27.0972 19.6622 25.2639C17.8489 23.4306 17.6222 20.9097 19.5867 19ZM20.7956 20.2222C19.8133 21.2153 20.1156 22.3611 21.3244 23.5833C22.5333 24.8056 23.6667 25.1111 24.6489 24.1181C25.6311 23.125 25.3289 21.9792 24.12 20.757C22.9111 19.5347 21.7022 19.2292 20.7956 20.2222ZM27.5956 15.7153L26.4622 12.2014L28.2756 10.3681L29.7867 16.3264L32.2044 18.7708L30.6933 20.375L28.3511 17.9306L22.6844 16.0972L24.4222 14.3403L27.5956 15.7153ZM55.7778 37.0278L61.8978 30.8403L60.2356 29.1597L54.1156 35.3472L55.7778 37.0278ZM32.5067 13.3472L37.2667 11.0556L33.7911 14.5695L35.2267 16.0208L41.3467 9.83335L39.3822 7.84724L34.7733 10.1389L37.04 5.55557L35 3.56946L28.88 9.75696L30.3156 11.2083L33.7911 7.69446L31.5244 12.507C31.5244 12.4306 32.5067 13.3472 32.5067 13.3472ZM43.0089 14.2639L41.9511 15.3333L44.2933 17.7014L43.0844 18.9236L40.7422 16.5556L39.3822 17.9306L42.2533 20.8333L41.0444 22.0556L36.6622 17.625L42.7822 11.4375L47.1644 15.8681L45.9556 17.0903C45.88 17.0903 43.0089 14.2639 43.0089 14.2639ZM48.9022 30.0764L53.0578 34.2778L54.4178 32.9028L51.8489 30.3056L56.5333 25.5695L55.0222 24.0417L48.9022 30.0764ZM65.2978 34.3542L63.3333 40.9236L67.5644 36.6459L69 38.0972L62.88 44.2847L60.9911 42.375L62.6533 35.6528L58.4978 39.7778L57.0622 38.3264L63.1822 32.1389L65.2978 34.3542ZM47.7689 28.8542L48.9778 24.6528C49.96 25.1111 51.1689 24.882 52 24.0417C52.9067 23.0486 52.8311 21.4445 51.8489 20.5278L48.6 17.1667L42.48 23.3542L43.9911 24.9583L48.9022 19.9931L50.1111 21.2153C50.5644 21.6736 50.5644 22.3611 50.1111 22.8195C49.6578 23.2778 48.9778 23.2778 48.5244 22.8195L47.3911 21.6736L46.1067 27.25L47.7689 28.8542Z" fill="#251B00"/>
<path d="M8.2533 45.4305H61.7466L35 18.2361L8.2533 45.4305Z" fill="#66C05D"/>
</g>
<defs>
<clipPath id="clip0">
<rect width="200" height="48" fill="white"/>
</clipPath>
</defs>
</svg>
