<svg width="47" height="47" viewBox="0 0 47 47" fill="none" xmlns="http://www.w3.org/2000/svg">
<path d="M14.3333 0.583344H32.6666C36.3134 0.583344 39.8107 2.032 42.3894 4.61062C44.968 7.18925 46.4166 10.6866 46.4166 14.3333V32.6667C46.4166 36.3134 44.968 39.8108 42.3894 42.3894C39.8107 44.968 36.3134 46.4167 32.6666 46.4167H14.3333C10.6866 46.4167 7.18922 44.968 4.61059 42.3894C2.03197 39.8108 0.583313 36.3134 0.583313 32.6667L0.583313 14.3333C0.583313 10.6866 2.03197 7.18925 4.61059 4.61062C7.18922 2.032 10.6866 0.583344 14.3333 0.583344ZM14.3333 5.16668C11.9022 5.16668 9.57058 6.13245 7.8515 7.85153C6.13242 9.57061 5.16665 11.9022 5.16665 14.3333V32.6667C5.16665 35.0978 6.13242 37.4294 7.8515 39.1485C9.57058 40.8676 11.9022 41.8333 14.3333 41.8333H32.6666C35.0978 41.8333 37.4294 40.8676 39.1485 39.1485C40.8675 37.4294 41.8333 35.0978 41.8333 32.6667V14.3333C41.8333 11.9022 40.8675 9.57061 39.1485 7.85153C37.4294 6.13245 35.0978 5.16668 32.6666 5.16668H14.3333ZM28.0833 21.2083H34.9583C35.5661 21.2083 36.149 21.4498 36.5788 21.8796C37.0085 22.3093 37.25 22.8922 37.25 23.5C37.25 24.1078 37.0085 24.6907 36.5788 25.1205C36.149 25.5502 35.5661 25.7917 34.9583 25.7917H28.0833C27.4755 25.7917 26.8926 25.5502 26.4629 25.1205C26.0331 24.6907 25.7916 24.1078 25.7916 23.5C25.7916 22.8922 26.0331 22.3093 26.4629 21.8796C26.8926 21.4498 27.4755 21.2083 28.0833 21.2083ZM23.5 30.375H34.9583C35.5661 30.375 36.149 30.6165 36.5788 31.0462C37.0085 31.476 37.25 32.0589 37.25 32.6667C37.25 33.2745 37.0085 33.8574 36.5788 34.2871C36.149 34.7169 35.5661 34.9583 34.9583 34.9583H23.5C22.8922 34.9583 22.3093 34.7169 21.8795 34.2871C21.4498 33.8574 21.2083 33.2745 21.2083 32.6667C21.2083 32.0589 21.4498 31.476 21.8795 31.0462C22.3093 30.6165 22.8922 30.375 23.5 30.375ZM23.5 12.0417H34.9583C35.5661 12.0417 36.149 12.2831 36.5788 12.7129C37.0085 13.1427 37.25 13.7256 37.25 14.3333C37.25 14.9411 37.0085 15.524 36.5788 15.9538C36.149 16.3836 35.5661 16.625 34.9583 16.625H23.5C22.8922 16.625 22.3093 16.3836 21.8795 15.9538C21.4498 15.524 21.2083 14.9411 21.2083 14.3333C21.2083 13.7256 21.4498 13.1427 21.8795 12.7129C22.3093 12.2831 22.8922 12.0417 23.5 12.0417ZM13.9391 24.0569L18.8021 19.1917C19.015 18.9789 19.2677 18.8102 19.5459 18.6951C19.824 18.58 20.1221 18.5208 20.4231 18.5209C20.7241 18.521 21.0221 18.5804 21.3002 18.6957C21.5782 18.811 21.8309 18.9799 22.0436 19.1928C22.2564 19.4057 22.4251 19.6585 22.5402 19.9366C22.6553 20.2148 22.7145 20.5128 22.7144 20.8138C22.7143 21.1148 22.6549 21.4129 22.5396 21.6909C22.4243 21.969 22.2554 22.2216 22.0425 22.4344L15.5616 28.9152C15.3488 29.1283 15.0961 29.2973 14.8179 29.4126C14.5397 29.528 14.2415 29.5873 13.9403 29.5873C13.6391 29.5873 13.3409 29.528 13.0627 29.4126C12.7845 29.2973 12.5318 29.1283 12.3189 28.9152L9.07852 25.6771C8.66108 25.2449 8.43009 24.666 8.43531 24.0651C8.44053 23.4643 8.68154 22.8895 9.10644 22.4646C9.53133 22.0397 10.1061 21.7987 10.707 21.7935C11.3078 21.7882 11.8867 22.0192 12.3189 22.4367L13.9391 24.0569Z" fill="#348BDC"/>
</svg>
